# Blender 4.3.2
# www.blender.org
mtllib bullet.mtl
o Bullet
v -0.138900 -0.138900 -1.335200
v 0.000000 -0.196400 -1.335200
v 0.000000 -0.196400 -0.987600
v -0.138900 -0.138900 -0.987600
v -0.196400 -0.000000 -1.335200
v -0.196400 -0.000000 -0.987600
v -0.138900 0.138900 -1.335200
v -0.138900 0.138900 -0.987600
v -0.000000 0.196400 -1.335200
v -0.000000 0.196400 -0.987600
v 0.138900 0.138900 -1.335200
v 0.138900 0.138900 -0.987600
v 0.196400 -0.000000 -1.335200
v 0.196400 -0.000000 -0.987600
v 0.138900 -0.138900 -1.335200
v 0.138900 -0.138900 -0.987600
v 0.000000 -0.196400 -0.639900
v -0.138900 -0.138900 -0.639900
v -0.196400 -0.000000 -0.639900
v -0.138900 0.138900 -0.639900
v -0.000000 0.196400 -0.639900
v 0.138900 0.138900 -0.639900
v 0.196400 -0.000000 -0.639900
v 0.138900 -0.138900 -0.639900
v 0.000000 -0.196400 -0.292300
v -0.138900 -0.138900 -0.292300
v -0.196400 -0.000000 -0.292300
v -0.138900 0.138900 -0.292300
v -0.000000 0.196400 -0.292300
v 0.138900 0.138900 -0.292300
v 0.196400 -0.000000 -0.292300
v 0.138900 -0.138900 -0.292300
v 0.000000 -0.196400 0.055400
v -0.138900 -0.138900 0.055400
v -0.196400 0.000000 0.055400
v -0.138900 0.138900 0.055400
v -0.000000 0.196400 0.055400
v 0.138900 0.138900 0.055400
v 0.196400 0.000000 0.055400
v 0.138900 -0.138900 0.055400
v -0.000400 0.000400 0.095600
v -0.000600 0.000000 0.095600
v -0.000400 -0.000400 0.095600
v 0.000000 -0.000600 0.095600
v 0.000400 -0.000400 0.095600
v 0.000600 0.000000 0.095600
v 0.000400 0.000400 0.095600
v -0.000000 0.000600 0.095600
v 0.012300 0.012300 -2.308600
v 0.017300 -0.000000 -2.308600
v 0.012300 -0.012300 -2.308600
v 0.000000 -0.017300 -2.308600
v -0.012300 -0.012300 -2.308600
v -0.017300 -0.000000 -2.308600
v -0.012300 0.012300 -2.308600
v -0.000000 0.017300 -2.308600
v 0.000000 -0.196400 -1.390500
v -0.138900 -0.138900 -1.390500
v 0.138900 -0.138900 -1.390500
v -0.196400 -0.000000 -1.390500
v -0.138900 0.138900 -1.390500
v -0.000000 0.196400 -1.390500
v 0.138900 0.138900 -1.390500
v 0.196400 -0.000000 -1.390500
v 0.000000 -0.156200 -1.494600
v -0.110400 -0.110400 -1.494600
v -0.156200 -0.000000 -1.494600
v 0.110400 -0.110400 -1.494600
v 0.156200 -0.000000 -1.494600
v -0.110400 0.110400 -1.494600
v -0.000000 0.156200 -1.494600
v 0.110400 0.110400 -1.494600
v 0.000000 -0.156200 -1.613800
v -0.110400 -0.110400 -1.613800
v -0.156200 -0.000000 -1.613800
v 0.110400 -0.110400 -1.613800
v -0.110400 0.110400 -1.613800
v 0.156200 -0.000000 -1.613800
v 0.110400 0.110400 -1.613800
v -0.000000 0.156200 -1.613800
v 0.000000 -0.130700 -1.613800
v -0.092400 -0.092400 -1.613800
v -0.130700 -0.000000 -1.613800
v 0.092400 -0.092400 -1.613800
v -0.092400 0.092400 -1.613800
v 0.130700 -0.000000 -1.613800
v -0.000000 0.130700 -1.613800
v 0.092400 0.092400 -1.613800
v 0.000000 -0.130700 -1.774100
v -0.092400 -0.092400 -1.774100
v -0.130700 -0.000000 -1.774100
v 0.092400 -0.092400 -1.774100
v -0.092400 0.092400 -1.774100
v 0.130700 -0.000000 -1.774100
v -0.000000 0.130700 -1.774100
v 0.092400 0.092400 -1.774100
v 0.000000 -0.107800 -1.980100
v -0.076200 -0.076200 -1.980100
v -0.107800 -0.000000 -1.980100
v 0.076200 -0.076200 -1.980100
v -0.076200 0.076200 -1.980100
v 0.107800 -0.000000 -1.980100
v -0.000000 0.107800 -1.980100
v 0.076200 0.076200 -1.980100
v -0.129500 -0.129500 0.075900
v 0.000000 -0.183100 0.075900
v 0.129500 -0.129500 0.075900
v -0.183100 0.000000 0.075900
v -0.129500 0.129500 0.075900
v -0.000000 0.183100 0.075900
v 0.129500 0.129500 0.075900
v 0.183100 0.000000 0.075900
v -0.129500 -0.129500 0.088800
v 0.000000 -0.183100 0.088800
v 0.129500 -0.129500 0.088800
v -0.183100 0.000000 0.088800
v 0.183100 0.000000 0.088800
v -0.129500 0.129500 0.088800
v -0.000000 0.183100 0.088800
v 0.129500 0.129500 0.088800
v -0.145300 -0.145300 0.088800
v 0.000000 -0.205500 0.088800
v 0.145300 -0.145300 0.088800
v -0.205500 0.000000 0.088800
v 0.205500 0.000000 0.088800
v -0.145300 0.145300 0.088800
v 0.145300 0.145300 0.088800
v -0.000000 0.205500 0.088800
v -0.145300 -0.145300 0.108600
v 0.000000 -0.205500 0.108600
v 0.145300 -0.145300 0.108600
v -0.205500 0.000000 0.108600
v 0.205500 0.000000 0.108600
v -0.145300 0.145300 0.108600
v 0.145300 0.145300 0.108600
v -0.000000 0.205500 0.108600
v -0.074900 -0.074900 0.108600
v 0.000000 -0.106000 0.108600
v 0.074900 -0.074900 0.108600
v -0.106000 0.000000 0.108600
v 0.106000 0.000000 0.108600
v -0.074900 0.074900 0.108600
v 0.074900 0.074900 0.108600
v -0.000000 0.106000 0.108600
v -0.074900 -0.074900 0.098200
v 0.000000 -0.106000 0.098200
v 0.074900 -0.074900 0.098200
v -0.106000 0.000000 0.098200
v 0.106000 0.000000 0.098200
v -0.074900 0.074900 0.098200
v 0.074900 0.074900 0.098200
v -0.000000 0.106000 0.098200
v -0.068500 -0.068500 0.098200
v 0.000000 -0.096900 0.098200
v 0.068500 -0.068500 0.098200
v -0.096900 0.000000 0.098200
v 0.096900 0.000000 0.098200
v -0.068500 0.068500 0.098200
v 0.068500 0.068500 0.098200
v -0.000000 0.096900 0.098200
v -0.068500 -0.068500 0.108600
v 0.000000 -0.096900 0.108600
v 0.068500 -0.068500 0.108600
v -0.096900 0.000000 0.108600
v 0.096900 0.000000 0.108600
v -0.068500 0.068500 0.108600
v 0.068500 0.068500 0.108600
v -0.000000 0.096900 0.108600
v -0.027600 -0.027600 0.108600
v 0.000000 -0.039000 0.108600
v 0.027600 -0.027600 0.108600
v -0.039000 0.000000 0.108600
v 0.039000 0.000000 0.108600
v -0.027600 0.027600 0.108600
v 0.027600 0.027600 0.108600
v -0.000000 0.039000 0.108600
vn -0.7071 -0.7071 -0.0000
vn -0.0000 -1.0000 -0.0000
vn -1.0000 -0.0000 -0.0000
vn -0.7071 0.7071 -0.0000
vn -0.0000 1.0000 -0.0000
vn 0.7071 0.7071 -0.0000
vn 1.0000 -0.0000 -0.0000
vn 0.7071 -0.7071 -0.0000
vn -0.0000 -0.9579 0.2872
vn -0.6773 -0.6773 0.2872
vn -0.9579 -0.0000 0.2872
vn -0.6773 0.6773 0.2872
vn -0.0000 0.9579 0.2872
vn 0.6773 0.6773 0.2872
vn 0.9579 -0.0000 0.2872
vn 0.6773 -0.6773 0.2872
vn 0.1622 -0.0672 0.9845
vn 0.2168 -0.0000 0.9762
vn 0.1533 0.1533 0.9762
vn -0.0000 -0.0000 1.0000
vn -0.1622 0.0672 0.9845
vn -0.2168 -0.0000 0.9762
vn -0.1622 -0.0672 0.9845
vn -0.0000 -0.9829 -0.1842
vn -0.6950 -0.6950 -0.1842
vn 0.6950 -0.6950 -0.1842
vn -0.9829 -0.0000 -0.1842
vn -0.6950 0.6950 -0.1842
vn -0.0000 0.9829 -0.1842
vn 0.6950 0.6950 -0.1842
vn 0.9829 -0.0000 -0.1842
vn -0.0000 -0.0000 -1.0000
vn 0.1150 0.1150 0.9867
vn -0.1079 0.0447 0.9932
vn 0.1626 -0.0000 0.9867
vn -0.1626 -0.0000 0.9867
vn 0.1079 -0.0447 0.9932
vn -0.1079 -0.0447 0.9932
vn 0.1323 0.3194 0.9383
vn -0.1323 0.3194 0.9383
vn 0.1323 -0.3194 0.9383
vn -0.1323 -0.3194 0.9383
vn -0.0000 -0.9985 -0.0549
vn -0.7061 -0.7060 -0.0546
vn -0.9985 -0.0000 -0.0549
vn 0.7060 -0.7061 -0.0546
vn -0.7060 0.7060 -0.0549
vn 0.9985 -0.0000 -0.0549
vn -0.0000 0.9985 -0.0549
vn 0.7060 0.7060 -0.0551
vn -0.0000 -0.9820 -0.1887
vn -0.6944 -0.6944 -0.1887
vn -0.9820 -0.0000 -0.1887
vn 0.6944 -0.6944 -0.1887
vn -0.6944 0.6944 -0.1887
vn 0.9820 -0.0000 -0.1887
vn -0.0000 0.9821 -0.1886
vn 0.6944 0.6944 -0.1887
vn -0.0000 -0.9641 -0.2654
vn -0.6815 -0.6819 -0.2658
vn -0.9641 -0.0000 -0.2654
vn 0.6818 -0.6817 -0.2654
vn -0.6818 0.6817 -0.2654
vn 0.9641 -0.0000 -0.2654
vn -0.0000 0.9641 -0.2654
vn 0.6815 0.6819 -0.2658
vt 0.611000 0.774700
vt 0.535500 0.774700
vt 0.535500 0.585800
vt 0.611000 0.585800
vt 0.229500 0.774700
vt 0.154000 0.774700
vt 0.154000 0.585800
vt 0.229500 0.585800
vt 0.304900 0.774700
vt 0.304900 0.585800
vt 0.076500 0.774700
vt 0.001000 0.774700
vt 0.001000 0.585800
vt 0.076500 0.585800
vt 0.151900 0.774700
vt 0.151900 0.585800
vt 0.382500 0.774700
vt 0.307000 0.774700
vt 0.307000 0.585800
vt 0.382500 0.585800
vt 0.457900 0.774700
vt 0.457900 0.585800
vt 0.460100 0.774700
vt 0.460100 0.585800
vt 0.535500 0.396900
vt 0.611000 0.396900
vt 0.154000 0.396900
vt 0.229500 0.396900
vt 0.304900 0.396900
vt 0.001000 0.396900
vt 0.076500 0.396900
vt 0.151900 0.396900
vt 0.307000 0.396900
vt 0.382500 0.396900
vt 0.457900 0.396900
vt 0.460100 0.396900
vt 0.535500 0.208100
vt 0.611000 0.208100
vt 0.154000 0.208100
vt 0.229500 0.208100
vt 0.304900 0.208100
vt 0.001000 0.208100
vt 0.076500 0.208100
vt 0.151900 0.208100
vt 0.307000 0.208100
vt 0.382500 0.208100
vt 0.457900 0.208100
vt 0.460100 0.208100
vt 0.535500 0.019200
vt 0.611000 0.019200
vt 0.154000 0.019200
vt 0.229500 0.019200
vt 0.304900 0.019200
vt 0.001000 0.019200
vt 0.076500 0.019200
vt 0.151900 0.019200
vt 0.307000 0.019200
vt 0.382500 0.019200
vt 0.457900 0.019200
vt 0.460100 0.019200
vt 0.675900 0.541600
vt 0.675700 0.541600
vt 0.675500 0.541500
vt 0.675500 0.541200
vt 0.675700 0.541000
vt 0.675900 0.541000
vt 0.676100 0.541200
vt 0.676100 0.541500
vt 0.535500 0.804700
vt 0.611000 0.804700
vt 0.460100 0.804700
vt 0.154000 0.804700
vt 0.229500 0.804700
vt 0.304900 0.804700
vt 0.001000 0.804700
vt 0.076500 0.804700
vt 0.151900 0.804700
vt 0.307000 0.804700
vt 0.382500 0.804700
vt 0.457900 0.804700
vt 0.535500 0.861300
vt 0.595500 0.861300
vt 0.169500 0.861300
vt 0.229500 0.861300
vt 0.475500 0.861300
vt 0.382500 0.861300
vt 0.442500 0.861300
vt 0.289500 0.861300
vt 0.016500 0.861300
vt 0.076500 0.861300
vt 0.136500 0.861300
vt 0.322500 0.861300
vt 0.535500 0.926000
vt 0.595500 0.926000
vt 0.169500 0.926000
vt 0.229500 0.926000
vt 0.475500 0.926000
vt 0.289500 0.926000
vt 0.382500 0.926000
vt 0.442500 0.926000
vt 0.322500 0.926000
vt 0.016500 0.926000
vt 0.076500 0.926000
vt 0.136500 0.926000
vt 0.970900 0.913100
vt 0.983700 0.918300
vt 0.938200 0.964600
vt 0.932800 0.951900
vt 0.873300 0.965200
vt 0.878500 0.952300
vt 0.970400 0.858800
vt 0.983200 0.853300
vt 0.826900 0.919700
vt 0.839700 0.914200
vt 0.931600 0.820700
vt 0.936800 0.807800
vt 0.826400 0.854700
vt 0.839200 0.859900
vt 0.877300 0.821100
vt 0.871900 0.808400
vt 0.605800 0.008000
vt 0.535500 0.008000
vt 0.465200 0.008000
vt 0.229500 0.008000
vt 0.159100 0.008000
vt 0.299800 0.008000
vt 0.076500 0.008000
vt 0.006100 0.008000
vt 0.146800 0.008000
vt 0.382500 0.008000
vt 0.312200 0.008000
vt 0.452800 0.008000
vt 0.605800 0.001000
vt 0.535500 0.001000
vt 0.465200 0.001000
vt 0.229500 0.001000
vt 0.159100 0.001000
vt 0.452800 0.001000
vt 0.382500 0.001000
vt 0.299800 0.001000
vt 0.076500 0.001000
vt 0.006100 0.001000
vt 0.146800 0.001000
vt 0.312200 0.001000
vt 0.922500 0.596700
vt 0.917700 0.585600
vt 0.971100 0.531300
vt 0.982300 0.535800
vt 0.970400 0.455100
vt 0.981600 0.450400
vt 0.837000 0.597500
vt 0.841600 0.586200
vt 0.916100 0.401800
vt 0.920700 0.390500
vt 0.776100 0.537600
vt 0.787300 0.532900
vt 0.840000 0.402400
vt 0.835200 0.391200
vt 0.775400 0.452200
vt 0.786600 0.456700
vt 0.721200 0.362900
vt 0.710400 0.362900
vt 0.710400 0.284000
vt 0.721200 0.284000
vt 0.710400 0.205000
vt 0.721200 0.205000
vt 0.623800 0.703100
vt 0.613100 0.703100
vt 0.613100 0.617700
vt 0.623800 0.617700
vt 0.622300 0.302400
vt 0.633100 0.302400
vt 0.633100 0.387800
vt 0.622300 0.387800
vt 0.623800 0.763500
vt 0.613100 0.763500
vt 0.633100 0.448200
vt 0.622300 0.448200
vt 0.623800 0.545500
vt 0.613100 0.545500
vt 0.613100 0.460100
vt 0.623800 0.460100
vt 0.623800 0.605900
vt 0.613100 0.605900
vt 0.856400 0.649700
vt 0.835200 0.599900
vt 0.920700 0.599200
vt 0.900400 0.649300
vt 0.981600 0.659000
vt 0.931800 0.680200
vt 0.825500 0.681100
vt 0.775400 0.660800
vt 0.982300 0.744500
vt 0.932200 0.724200
vt 0.825900 0.725100
vt 0.776100 0.746300
vt 0.922500 0.805400
vt 0.901300 0.755600
vt 0.857300 0.756000
vt 0.837000 0.806100
vt 0.014900 0.943400
vt 0.014900 0.937700
vt 0.055600 0.937700
vt 0.055600 0.943400
vt 0.096300 0.937700
vt 0.096300 0.943400
vt 0.055600 0.961900
vt 0.055600 0.956200
vt 0.096300 0.956200
vt 0.096300 0.961900
vt 0.014900 0.952600
vt 0.014900 0.946900
vt 0.055600 0.946900
vt 0.055600 0.952600
vt 0.014900 0.961900
vt 0.014900 0.956200
vt 0.096300 0.946900
vt 0.096300 0.952600
vt 0.055600 0.934100
vt 0.055600 0.928400
vt 0.096300 0.928400
vt 0.096300 0.934100
vt 0.014900 0.934100
vt 0.014900 0.928400
vt 0.756600 0.404800
vt 0.761200 0.402800
vt 0.761600 0.446900
vt 0.757000 0.445100
vt 0.730700 0.478300
vt 0.728800 0.473800
vt 0.727900 0.376500
vt 0.729700 0.372000
vt 0.686600 0.478700
vt 0.688500 0.474100
vt 0.687600 0.376900
vt 0.685700 0.372300
vt 0.655200 0.447800
vt 0.659700 0.445900
vt 0.659400 0.405600
vt 0.654800 0.403800
vt 0.083700 0.993300
vt 0.083700 0.999000
vt 0.043400 0.999000
vt 0.043400 0.993300
vt 0.014900 0.999000
vt 0.014900 0.993300
vt 0.052100 0.984000
vt 0.052100 0.989700
vt 0.014900 0.989700
vt 0.014900 0.984000
vt 0.089400 0.965500
vt 0.089400 0.971200
vt 0.052100 0.971200
vt 0.052100 0.965500
vt 0.089400 0.984000
vt 0.089400 0.989700
vt 0.014900 0.971200
vt 0.014900 0.965500
vt 0.052100 0.974800
vt 0.052100 0.980500
vt 0.014900 0.980500
vt 0.014900 0.974800
vt 0.089400 0.974800
vt 0.089400 0.980500
vt 0.656300 0.549600
vt 0.627300 0.561900
vt 0.627000 0.521600
vt 0.656200 0.533400
vt 0.655200 0.492900
vt 0.667500 0.521800
vt 0.667900 0.561000
vt 0.656100 0.590200
vt 0.695500 0.492500
vt 0.683700 0.521700
vt 0.684100 0.560800
vt 0.696400 0.589800
vt 0.724300 0.520800
vt 0.695300 0.533100
vt 0.695400 0.549300
vt 0.724600 0.561100
vt 0.877800 0.024200
vt 0.885000 0.024200
vt 0.890200 0.029200
vt 0.890200 0.036500
vt 0.885200 0.041600
vt 0.877900 0.041700
vt 0.872800 0.036600
vt 0.872700 0.029400
vt 0.769900 0.088100
vt 0.769900 0.001000
vt 0.820100 0.001000
vt 0.820100 0.088100
vt 0.895900 0.088100
vt 0.895900 0.001000
vt 0.946100 0.001000
vt 0.946100 0.088100
vt 0.719700 0.088100
vt 0.719700 0.001000
vt 0.996300 0.001000
vt 0.996300 0.088100
vt 0.663300 0.088100
vt 0.663300 0.001000
vt 0.713500 0.001000
vt 0.713500 0.088100
vt 0.908200 0.300700
vt 0.908200 0.387800
vt 0.858000 0.387800
vt 0.858000 0.300700
vt 0.613100 0.088100
vt 0.613100 0.001000
vt 0.807800 0.387800
vt 0.807800 0.300700
vt 0.769900 0.200000
vt 0.811300 0.200000
vt 0.904700 0.200000
vt 0.946100 0.200000
vt 0.728500 0.200000
vt 0.987500 0.200000
vt 0.663300 0.200000
vt 0.704700 0.200000
vt 0.899400 0.188800
vt 0.858000 0.188800
vt 0.621900 0.200000
vt 0.816600 0.188800
vt 0.769900 0.378500
vt 0.776600 0.378500
vt 0.939500 0.378500
vt 0.946100 0.378500
vt 0.763300 0.378500
vt 0.952800 0.378500
vt 0.663300 0.378500
vt 0.669900 0.378500
vt 0.864700 0.010300
vt 0.858000 0.010300
vt 0.656600 0.378500
vt 0.851400 0.010300
s 1
usemtl Messing
f 1/1/1 2/2/2 3/3/2
f 3/3/2 4/4/1 1/1/1
f 5/5/3 1/6/1 4/7/1
f 4/7/1 6/8/3 5/5/3
f 7/9/4 5/5/3 6/8/3
f 6/8/3 8/10/4 7/9/4
f 9/11/5 7/12/4 8/13/4
f 8/13/4 10/14/5 9/11/5
f 11/15/6 9/11/5 10/14/5
f 10/14/5 12/16/6 11/15/6
f 13/17/7 11/18/6 12/19/6
f 12/19/6 14/20/7 13/17/7
f 15/21/8 13/17/7 14/20/7
f 14/20/7 16/22/8 15/21/8
f 2/2/2 15/23/8 16/24/8
f 16/24/8 3/3/2 2/2/2
f 4/4/1 3/3/2 17/25/2
f 17/25/2 18/26/1 4/4/1
f 6/8/3 4/7/1 18/27/1
f 18/27/1 19/28/3 6/8/3
f 8/10/4 6/8/3 19/28/3
f 19/28/3 20/29/4 8/10/4
f 10/14/5 8/13/4 20/30/4
f 20/30/4 21/31/5 10/14/5
f 12/16/6 10/14/5 21/31/5
f 21/31/5 22/32/6 12/16/6
f 14/20/7 12/19/6 22/33/6
f 22/33/6 23/34/7 14/20/7
f 16/22/8 14/20/7 23/34/7
f 23/34/7 24/35/8 16/22/8
f 3/3/2 16/24/8 24/36/8
f 24/36/8 17/25/2 3/3/2
f 18/26/1 17/25/2 25/37/2
f 25/37/2 26/38/1 18/26/1
f 19/28/3 18/27/1 26/39/1
f 26/39/1 27/40/3 19/28/3
f 20/29/4 19/28/3 27/40/3
f 27/40/3 28/41/4 20/29/4
f 21/31/5 20/30/4 28/42/4
f 28/42/4 29/43/5 21/31/5
f 22/32/6 21/31/5 29/43/5
f 29/43/5 30/44/6 22/32/6
f 23/34/7 22/33/6 30/45/6
f 30/45/6 31/46/7 23/34/7
f 24/35/8 23/34/7 31/46/7
f 31/46/7 32/47/8 24/35/8
f 17/25/2 24/36/8 32/48/8
f 32/48/8 25/37/2 17/25/2
f 26/38/1 25/37/2 33/49/9
f 33/49/9 34/50/10 26/38/1
f 27/40/3 26/39/1 34/51/10
f 34/51/10 35/52/11 27/40/3
f 28/41/4 27/40/3 35/52/11
f 35/52/11 36/53/12 28/41/4
f 29/43/5 28/42/4 36/54/12
f 36/54/12 37/55/13 29/43/5
f 30/44/6 29/43/5 37/55/13
f 37/55/13 38/56/14 30/44/6
f 31/46/7 30/45/6 38/57/14
f 38/57/14 39/58/15 31/46/7
f 32/47/8 31/46/7 39/58/15
f 39/58/15 40/59/16 32/47/8
f 25/37/2 32/48/8 40/60/16
f 40/60/16 33/49/9 25/37/2
f 41/61/17 42/62/18 43/63/19
f 43/63/19 44/64/20 45/65/21
f 45/65/21 46/66/22 47/67/23
f 43/63/19 45/65/21 47/67/23
f 41/61/17 43/63/19 47/67/23
f 41/61/17 47/67/23 48/68/20
f 57/69/24 2/2/2 1/1/1
f 1/1/1 58/70/25 57/69/24
f 59/71/26 15/23/8 2/2/2
f 2/2/2 57/69/24 59/71/26
f 58/72/25 1/6/1 5/5/3
f 5/5/3 60/73/27 58/72/25
f 60/73/27 5/5/3 7/9/4
f 7/9/4 61/74/28 60/73/27
f 61/75/28 7/12/4 9/11/5
f 9/11/5 62/76/29 61/75/28
f 62/76/29 9/11/5 11/15/6
f 11/15/6 63/77/30 62/76/29
f 63/78/30 11/18/6 13/17/7
f 13/17/7 64/79/31 63/78/30
f 64/79/31 13/17/7 15/21/8
f 15/21/8 59/80/26 64/79/31
f 65/81/24 57/69/24 58/70/25
f 58/70/25 66/82/25 65/81/24
f 66/83/25 58/72/25 60/73/27
f 60/73/27 67/84/27 66/83/25
f 68/85/26 59/71/26 57/69/24
f 57/69/24 65/81/24 68/85/26
f 69/86/31 64/79/31 59/80/26
f 59/80/26 68/87/26 69/86/31
f 67/84/27 60/73/27 61/74/28
f 61/74/28 70/88/28 67/84/27
f 70/89/28 61/75/28 62/76/29
f 62/76/29 71/90/29 70/89/28
f 71/90/29 62/76/29 63/77/30
f 63/77/30 72/91/30 71/90/29
f 72/92/30 63/78/30 64/79/31
f 64/79/31 69/86/31 72/92/30
f 73/93/2 65/81/24 66/82/25
f 66/82/25 74/94/1 73/93/2
f 74/95/1 66/83/25 67/84/27
f 67/84/27 75/96/3 74/95/1
f 76/97/8 68/85/26 65/81/24
f 65/81/24 73/93/2 76/97/8
f 75/96/3 67/84/27 70/88/28
f 70/88/28 77/98/4 75/96/3
f 78/99/7 69/86/31 68/87/26
f 68/87/26 76/100/8 78/99/7
f 79/101/6 72/92/30 69/86/31
f 69/86/31 78/99/7 79/101/6
f 77/102/4 70/89/28 71/90/29
f 71/90/29 80/103/5 77/102/4
f 80/103/5 71/90/29 72/91/30
f 72/91/30 79/104/6 80/103/5
f 81/105/32 73/106/32 74/107/32
f 74/107/32 82/108/32 81/105/32
f 82/108/32 74/107/32 75/109/32
f 75/109/32 83/110/32 82/108/32
f 84/111/32 76/112/32 73/106/32
f 73/106/32 81/105/32 84/111/32
f 83/110/32 75/109/32 77/113/32
f 77/113/32 85/114/32 83/110/32
f 86/115/32 78/116/32 76/112/32
f 76/112/32 84/111/32 86/115/32
f 85/114/32 77/113/32 80/117/32
f 80/117/32 87/118/32 85/114/32
f 88/119/32 79/120/32 78/116/32
f 78/116/32 86/115/32 88/119/32
f 87/118/32 80/117/32 79/120/32
f 79/120/32 88/119/32 87/118/32
f 105/121/10 34/50/10 33/49/9
f 33/49/9 106/122/9 105/121/10
f 106/122/9 33/49/9 40/60/16
f 40/60/16 107/123/16 106/122/9
f 108/124/11 35/52/11 34/51/10
f 34/51/10 105/125/10 108/124/11
f 109/126/12 36/53/12 35/52/11
f 35/52/11 108/124/11 109/126/12
f 110/127/13 37/55/13 36/54/12
f 36/54/12 109/128/12 110/127/13
f 111/129/14 38/56/14 37/55/13
f 37/55/13 110/127/13 111/129/14
f 112/130/15 39/58/15 38/57/14
f 38/57/14 111/131/14 112/130/15
f 107/132/16 40/59/16 39/58/15
f 39/58/15 112/130/15 107/132/16
f 113/133/1 105/121/10 106/122/9
f 106/122/9 114/134/2 113/133/1
f 114/134/2 106/122/9 107/123/16
f 107/123/16 115/135/8 114/134/2
f 116/136/3 108/124/11 105/125/10
f 105/125/10 113/137/1 116/136/3
f 115/138/8 107/132/16 112/130/15
f 112/130/15 117/139/7 115/138/8
f 118/140/4 109/126/12 108/124/11
f 108/124/11 116/136/3 118/140/4
f 119/141/5 110/127/13 109/128/12
f 109/128/12 118/142/4 119/141/5
f 120/143/6 111/129/14 110/127/13
f 110/127/13 119/141/5 120/143/6
f 117/139/7 112/130/15 111/131/14
f 111/131/14 120/144/6 117/139/7
f 121/145/32 113/146/32 114/147/32
f 114/147/32 122/148/32 121/145/32
f 122/148/32 114/147/32 115/149/32
f 115/149/32 123/150/32 122/148/32
f 124/151/32 116/152/32 113/146/32
f 113/146/32 121/145/32 124/151/32
f 123/150/32 115/149/32 117/153/32
f 117/153/32 125/154/32 123/150/32
f 126/155/32 118/156/32 116/152/32
f 116/152/32 124/151/32 126/155/32
f 125/154/32 117/153/32 120/157/32
f 120/157/32 127/158/32 125/154/32
f 128/159/32 119/160/32 118/156/32
f 118/156/32 126/155/32 128/159/32
f 127/158/32 120/157/32 119/160/32
f 119/160/32 128/159/32 127/158/32
f 129/161/1 121/162/1 122/163/2
f 122/163/2 130/164/2 129/161/1
f 130/164/2 122/163/2 123/165/8
f 123/165/8 131/166/8 130/164/2
f 132/167/3 124/168/3 121/169/1
f 121/169/1 129/170/1 132/167/3
f 131/171/8 123/172/8 125/173/7
f 125/173/7 133/174/7 131/171/8
f 134/175/4 126/176/4 124/168/3
f 124/168/3 132/167/3 134/175/4
f 133/174/7 125/173/7 127/177/6
f 127/177/6 135/178/6 133/174/7
f 136/179/5 128/180/5 126/181/4
f 126/181/4 134/182/4 136/179/5
f 135/183/6 127/184/6 128/180/5
f 128/180/5 136/179/5 135/183/6
f 137/185/20 129/186/20 130/187/20
f 130/187/20 138/188/20 137/185/20
f 138/188/20 130/187/20 131/189/20
f 131/189/20 139/190/20 138/188/20
f 140/191/20 132/192/20 129/186/20
f 129/186/20 137/185/20 140/191/20
f 139/190/20 131/189/20 133/193/20
f 133/193/20 141/194/20 139/190/20
f 142/195/20 134/196/20 132/192/20
f 132/192/20 140/191/20 142/195/20
f 141/194/20 133/193/20 135/197/20
f 135/197/20 143/198/20 141/194/20
f 144/199/20 136/200/20 134/196/20
f 134/196/20 142/195/20 144/199/20
f 143/198/20 135/197/20 136/200/20
f 136/200/20 144/199/20 143/198/20
f 145/201/6 137/202/6 138/203/5
f 138/203/5 146/204/5 145/201/6
f 146/204/5 138/203/5 139/205/4
f 139/205/4 147/206/4 146/204/5
f 148/207/7 140/208/7 137/209/6
f 137/209/6 145/210/6 148/207/7
f 147/211/4 139/212/4 141/213/3
f 141/213/3 149/214/3 147/211/4
f 150/215/8 142/216/8 140/208/7
f 140/208/7 148/207/7 150/215/8
f 149/214/3 141/213/3 143/217/1
f 143/217/1 151/218/1 149/214/3
f 152/219/2 144/220/2 142/221/8
f 142/221/8 150/222/8 152/219/2
f 151/223/1 143/224/1 144/220/2
f 144/220/2 152/219/2 151/223/1
f 153/225/20 145/226/20 146/227/20
f 146/227/20 154/228/20 153/225/20
f 154/228/20 146/227/20 147/229/20
f 147/229/20 155/230/20 154/228/20
f 156/231/20 148/232/20 145/226/20
f 145/226/20 153/225/20 156/231/20
f 155/230/20 147/229/20 149/233/20
f 149/233/20 157/234/20 155/230/20
f 158/235/20 150/236/20 148/232/20
f 148/232/20 156/231/20 158/235/20
f 157/234/20 149/233/20 151/237/20
f 151/237/20 159/238/20 157/234/20
f 160/239/20 152/240/20 150/236/20
f 150/236/20 158/235/20 160/239/20
f 159/238/20 151/237/20 152/240/20
f 152/240/20 160/239/20 159/238/20
f 161/241/1 153/242/1 154/243/2
f 154/243/2 162/244/2 161/241/1
f 162/244/2 154/243/2 155/245/8
f 155/245/8 163/246/8 162/244/2
f 164/247/3 156/248/3 153/249/1
f 153/249/1 161/250/1 164/247/3
f 163/251/8 155/252/8 157/253/7
f 157/253/7 165/254/7 163/251/8
f 166/255/4 158/256/4 156/248/3
f 156/248/3 164/247/3 166/255/4
f 165/254/7 157/253/7 159/257/6
f 159/257/6 167/258/6 165/254/7
f 168/259/5 160/260/5 158/261/4
f 158/261/4 166/262/4 168/259/5
f 167/263/6 159/264/6 160/260/5
f 160/260/5 168/259/5 167/263/6
f 169/265/33 161/266/20 162/267/20
f 162/267/20 170/268/20 169/265/33
f 170/268/20 162/267/20 163/269/20
f 163/269/20 171/270/34 170/268/20
f 172/271/35 164/272/20 161/266/20
f 161/266/20 169/265/33 172/271/35
f 171/270/34 163/269/20 165/273/20
f 165/273/20 173/274/36 171/270/34
f 174/275/37 166/276/20 164/272/20
f 164/272/20 172/271/35 174/275/37
f 173/274/36 165/273/20 167/277/20
f 167/277/20 175/278/38 173/274/36
f 176/279/20 168/280/20 166/276/20
f 166/276/20 174/275/37 176/279/20
f 175/278/38 167/277/20 168/280/20
f 168/280/20 176/279/20 175/278/38
f 170/268/39 44/64/39 43/63/19
f 43/63/19 169/265/33 170/268/39
f 171/270/40 45/65/40 44/64/40
f 44/64/40 170/268/40 171/270/40
f 169/265/33 43/63/19 42/62/18
f 42/62/18 172/271/35 169/265/33
f 173/274/36 46/66/22 45/65/21
f 45/65/21 171/270/34 173/274/36
f 172/271/35 42/62/18 41/61/17
f 41/61/17 174/275/37 172/271/35
f 175/278/38 47/67/23 46/66/22
f 46/66/22 173/274/36 175/278/38
f 174/275/41 41/61/41 48/68/41
f 48/68/41 176/279/41 174/275/41
f 176/279/42 48/68/42 47/67/42
f 47/67/42 175/278/42 176/279/42
usemtl material23
f 49/281/32 50/282/32 51/283/32
f 51/283/32 52/284/32 53/285/32
f 53/285/32 54/286/32 55/287/32
f 51/283/32 53/285/32 55/287/32
f 49/281/32 51/283/32 55/287/32
f 49/281/32 55/287/32 56/288/32
f 89/289/43 81/290/2 82/291/1
f 82/291/1 90/292/44 89/289/43
f 90/293/44 82/294/1 83/295/3
f 83/295/3 91/296/45 90/293/44
f 92/297/46 84/298/8 81/290/2
f 81/290/2 89/289/43 92/297/46
f 91/296/45 83/295/3 85/299/4
f 85/299/4 93/300/47 91/296/45
f 94/301/48 86/302/7 84/303/8
f 84/303/8 92/304/46 94/301/48
f 93/305/47 85/306/4 87/307/5
f 87/307/5 95/308/49 93/305/47
f 96/309/50 88/310/6 86/302/7
f 86/302/7 94/301/48 96/309/50
f 95/308/49 87/307/5 88/311/6
f 88/311/6 96/312/50 95/308/49
f 97/313/51 89/289/43 90/292/44
f 90/292/44 98/314/52 97/313/51
f 98/315/52 90/293/44 91/296/45
f 91/296/45 99/316/53 98/315/52
f 100/317/54 92/297/46 89/289/43
f 89/289/43 97/313/51 100/317/54
f 99/316/53 91/296/45 93/300/47
f 93/300/47 101/318/55 99/316/53
f 102/319/56 94/301/48 92/304/46
f 92/304/46 100/320/54 102/319/56
f 101/321/55 93/305/47 95/308/49
f 95/308/49 103/322/57 101/321/55
f 104/323/58 96/309/50 94/301/48
f 94/301/48 102/319/56 104/323/58
f 103/322/57 95/308/49 96/312/50
f 96/312/50 104/324/58 103/322/57
f 52/325/59 97/313/51 98/314/52
f 98/314/52 53/326/60 52/325/59
f 53/327/60 98/315/52 99/316/53
f 99/316/53 54/328/61 53/327/60
f 51/329/62 100/317/54 97/313/51
f 97/313/51 52/325/59 51/329/62
f 54/328/61 99/316/53 101/318/55
f 101/318/55 55/330/63 54/328/61
f 50/331/64 102/319/56 100/320/54
f 100/320/54 51/332/62 50/331/64
f 55/333/63 101/321/55 103/322/57
f 103/322/57 56/334/65 55/333/63
f 49/335/66 104/323/58 102/319/56
f 102/319/56 50/331/64 49/335/66
f 56/334/65 103/322/57 104/324/58
f 104/324/58 49/336/66 56/334/65
